<svg width="215" height="126" viewBox="0 0 215 126" fill="none" xmlns="http://www.w3.org/2000/svg">
<g clip-path="url(#clip0_21_2)">
<path d="M183.426 76.4448C167.165 78.2 153.117 74.0481 143.612 59.9629C135.124 47.402 135.915 34.0604 142.016 20.3656C144.973 24.3919 148.989 26.0553 153.694 26.5815C147.726 37.961 147.454 49.2658 153.979 60.2413C160.562 71.2881 170.77 76.1868 183.426 76.4448Z" fill="#FEFEFE"/>
<path d="M154.546 22.8879C153.029 22.9108 151.522 22.6344 150.112 22.0743C148.702 21.5143 147.416 20.6816 146.328 19.6241C145.239 18.5665 144.37 17.3048 143.77 15.911C143.17 14.5173 142.851 13.0189 142.831 11.5017C142.776 5.19409 147.998 0.00678592 154.417 -0.0067934C160.895 -0.0237676 166.092 5.04132 166.106 11.3761C166.109 12.8929 165.812 14.3953 165.232 15.7968C164.652 17.1982 163.8 18.4708 162.725 19.5411C161.65 20.6114 160.374 21.4582 158.971 22.0327C157.567 22.6071 156.063 22.8978 154.546 22.8879Z" fill="#FEFEFE"/>
<path d="M169.687 12.897C169.786 8.54478 168.581 4.83423 165.997 1.57519C187.507 -4.57624 214.441 8.96914 214.92 37.3092C212.622 27.2571 207.597 19.1061 198.309 14.1395C189.102 9.22036 179.546 9.41386 169.687 12.897Z" fill="#FEFEFE"/>
<path d="M154.553 55.7363C159.798 64.77 167.477 69.7909 178.022 68.9218C188.936 68.0392 195.318 61.2495 198.669 51.065C201.724 52.4671 204.732 52.2465 207.995 50.3555C207.723 52.6165 207.655 54.5447 207.237 56.4051C205.021 66.6982 197.915 73.2774 186.953 74.5233C174.793 75.9084 164.86 71.6377 157.619 61.623C156.719 60.3838 156.064 58.9614 155.334 57.6035C155.022 56.9992 154.815 56.3542 154.553 55.7363Z" fill="#FEFEFE"/>
<path d="M5.69653 112.029H0.546573C0.522809 111.595 0.478678 111.164 0.478678 110.736C0.478678 102.083 0.495648 93.4224 0.44812 84.7757C0.44812 83.6385 0.787605 83.3261 1.88753 83.3431C6.1141 83.3974 10.3441 83.3431 14.5706 83.3737C18.9839 83.4178 22.6639 86.0081 23.9539 89.8578C25.4001 94.1896 24.1848 98.6844 20.7764 101.4C19.0047 102.793 16.8138 103.544 14.5604 103.532C12.0415 103.576 9.51911 103.586 7.00015 103.532C6.01225 103.508 5.64221 103.77 5.67277 104.812C5.74406 107.171 5.69653 109.524 5.69653 112.029ZM10.4934 98.8201V98.7998C11.7937 98.7998 13.0973 98.8711 14.3907 98.7828C17.3747 98.5859 19.2657 96.6169 19.3913 93.6906C19.5067 90.9747 17.7652 88.7205 14.9067 88.4455C12.1297 88.1773 9.31881 88.2622 6.52147 88.269C6.24649 88.269 5.74066 88.8258 5.73388 89.1313C5.67277 92.0542 5.7169 94.9738 5.68295 97.8968C5.68295 98.6844 6.02244 98.8541 6.7014 98.8371C7.97447 98.7998 9.23395 98.8201 10.4934 98.8201Z" fill="#FEFEFE"/>
<path d="M43.3317 94.5426L43.5252 91.9762C44.8831 91.9762 46.2003 91.9388 47.5209 92.0169C47.7415 92.0169 48.1116 92.5465 48.115 92.8317C48.1489 98.9661 48.1353 105.104 48.1455 111.238C48.1455 111.849 47.9147 112.128 47.2765 112.104C46.4241 112.05 45.5691 112.05 44.7167 112.104C43.6983 112.196 43.4267 111.714 43.4471 110.824C43.438 110.37 43.4051 109.917 43.3486 109.466C42.1944 110.312 41.2371 111.293 40.0726 111.826C35.364 113.992 27.6611 112.209 26.3779 104.479C25.7736 100.854 26.293 97.4588 28.7848 94.5426C31.8911 90.917 39.8825 89.997 42.8835 94.2948C42.9243 94.3695 43.0193 94.3865 43.3317 94.5426ZM43.2128 102.011C43.2128 98.277 40.755 95.7308 37.1021 95.7308C33.4493 95.7308 30.9915 98.2464 30.9677 101.988C30.9371 105.62 33.5342 108.309 37.0784 108.326C40.6226 108.343 43.2094 105.722 43.2128 102.018V102.011Z" fill="#FEFEFE"/>
<path d="M167.854 94.5969C167.925 93.6464 167.976 92.8995 168.044 91.9795C169.402 91.9795 170.729 91.9388 172.05 92.0169C172.267 92.0169 172.631 92.5533 172.631 92.8418C172.665 98.9763 172.654 105.107 172.661 111.242C172.661 111.856 172.427 112.155 171.792 112.097C171.592 112.097 171.385 112.097 171.181 112.097C170.251 112.074 169.114 112.362 168.465 111.924C167.932 111.585 167.976 110.349 167.759 109.476C167.698 109.476 167.525 109.476 167.484 109.531C165.138 113.109 159.825 113.265 156.437 111.829C152.133 109.996 150.435 105.617 150.714 101.213C150.917 97.951 152.109 95.1673 154.893 93.2085C157.839 91.1376 162.803 90.8321 165.634 92.6823C166.357 93.1609 166.965 93.8399 167.854 94.5969ZM155.524 102.008C155.524 105.698 158.08 108.329 161.635 108.332C165.189 108.336 167.735 105.722 167.732 101.987C167.728 98.2532 165.288 95.7206 161.621 95.724C157.955 95.7274 155.514 98.2803 155.524 102.008Z" fill="#FEFEFE"/>
<path d="M113.527 112.04H109.201C109.062 111.167 108.927 110.305 108.784 109.415C107.918 110.152 107.185 110.987 106.272 111.52C100.314 115.031 92.2239 110.702 91.7962 103.8C91.64 101.278 91.6774 98.7964 92.9674 96.4608C94.6275 93.4598 97.2347 91.9423 100.501 91.5451C103.627 91.1615 106.516 91.7386 108.618 94.5699C108.736 94.3492 108.848 94.2304 108.862 94.1014C109.083 91.966 109.079 91.966 111.266 91.966H113.527V112.04ZM102.707 95.7445C99.034 95.7445 96.5388 98.2261 96.5218 101.93C96.5014 105.691 99.0543 108.35 102.677 108.339C106.2 108.339 108.804 105.623 108.787 101.971C108.77 98.3178 106.245 95.7513 102.707 95.7377V95.7445Z" fill="#FEFEFE"/>
<path d="M143.34 106.574C144.379 107.569 145.336 108.492 146.355 109.473C144.996 110.843 143.264 111.781 141.374 112.172C137.457 113.085 133.624 112.943 130.406 110.257C126.726 107.202 125.992 103.081 127.191 98.6538C128.321 94.4917 131.227 92.0509 135.508 91.5247C137.229 91.3197 138.972 91.3965 140.668 91.7521C144.667 92.6076 147.18 95.646 147.567 99.7028C147.641 100.507 147.723 101.315 147.78 102.123C147.859 103.22 147.441 103.699 146.236 103.682C141.968 103.614 137.701 103.651 133.434 103.658C132.914 103.658 132.395 103.712 131.903 103.739C131.526 105.393 133.471 107.541 135.827 108.074C138.373 108.648 140.736 108.183 143.34 106.574ZM131.974 99.6519H142.905C142.719 97.1601 140.845 95.6698 137.98 95.517C135.413 95.3778 132.286 96.8444 131.974 99.6519Z" fill="#FEFEFE"/>
<path d="M197.196 102.184C197.097 108.455 192.677 112.708 186.312 112.556C180.201 112.403 176.015 107.762 176.239 101.353C176.44 95.629 180.992 91.399 187.052 91.5077C192.901 91.6027 197.287 96.2163 197.196 102.184ZM186.604 108.098C190.022 108.115 192.344 105.722 192.375 102.137C192.409 98.6198 189.866 95.8293 186.658 95.8598C183.45 95.8904 181.057 98.4535 181.016 101.93C180.978 105.539 183.284 108.098 186.604 108.098Z" fill="#FEFEFE"/>
<path d="M57.2301 112.04H52.5792C52.5452 111.663 52.4909 111.313 52.4909 110.964C52.4909 105.036 52.5113 99.1053 52.4637 93.1746C52.4637 92.1324 52.8032 91.7691 53.7911 91.8981C53.9121 91.9049 54.0334 91.9049 54.1544 91.8981C54.925 91.9253 55.8857 91.6842 56.4085 92.0577C56.8804 92.3972 56.8668 93.4156 57.0875 94.0946C57.1181 94.1998 57.2301 94.2813 57.3829 94.468L58.5099 93.5752C61.2258 91.3957 64.2812 91.0053 67.4316 92.3428C70.582 93.6804 72.1232 96.4608 72.3201 99.7741C72.5374 103.508 72.405 107.243 72.4593 110.977C72.4593 111.809 72.2013 112.155 71.3356 112.091C70.4845 112.031 69.6304 112.031 68.7793 112.091C67.9238 112.152 67.6386 111.836 67.6488 110.984C67.6862 108.061 67.6726 105.138 67.6488 102.212C67.6801 101.442 67.6289 100.672 67.4961 99.9133C66.9223 97.3434 65.1944 95.9685 62.6788 95.9685C61.4698 95.9494 60.292 96.352 59.3477 97.1073C58.4035 97.8625 57.7519 98.9232 57.5051 100.107C57.3135 101.06 57.2237 102.031 57.2369 103.003C57.2097 105.98 57.2301 108.937 57.2301 112.04Z" fill="#FEFEFE"/>
<path d="M203.021 49.4932C198.516 49.5238 195.016 46.0984 194.996 41.6444C194.983 40.6083 195.175 39.5799 195.561 38.6184C195.947 37.6568 196.519 36.781 197.245 36.0415C197.97 35.3019 198.835 34.7132 199.789 34.3091C200.743 33.905 201.768 33.6935 202.804 33.6869C207.329 33.6529 210.951 37.1259 211.03 41.5493C211.08 45.8608 207.451 49.4593 203.021 49.4932Z" fill="#FEFEFE"/>
<path d="M83.1088 86.188C83.1088 87.4712 83.1088 88.5644 83.1088 89.6541C83.1326 92.2342 82.7694 91.9422 85.4852 91.966C86.5037 91.966 87.5221 91.966 88.7239 91.966V96.0228C87.2539 96.0228 85.8485 96.0805 84.4498 96.0024C83.3838 95.9413 83.0342 96.291 83.0681 97.3604C83.1428 99.8386 83.0681 102.317 83.0953 104.795C83.1224 107.273 84.5041 108.451 86.8635 107.816C88.1332 107.477 88.5134 107.888 88.751 108.988C88.9613 109.792 89.2129 110.585 89.5047 111.364C84.2291 114.419 78.4511 111.221 78.3629 105.338C78.3255 102.66 78.3119 99.9778 78.3629 97.2993C78.3832 96.2638 78.003 95.921 77.0049 95.9956C76.2071 96.0567 75.4026 95.9956 74.5233 95.9956V91.966C75.3924 91.966 76.2207 91.9218 77.066 91.966C77.9996 92.0305 78.4002 91.7182 78.3459 90.7235C78.2746 89.4334 78.3289 88.1332 78.3289 86.704L83.1088 86.188Z" fill="#FEFEFE"/>
<path d="M192.837 53.713C189 60.6521 181.44 63.7549 173.826 62.9809C166.357 62.2205 160.416 58.9071 157.126 51.778C158.484 52.0292 159.737 52.457 160.986 52.4298C162.236 52.4027 163.498 51.9715 164.941 51.6761C166.541 53.7631 168.558 55.4928 170.865 56.7544C173.172 58.016 175.717 58.7816 178.337 59.0022C183.942 59.5318 188.817 57.7631 192.837 53.713Z" fill="#FEFEFE"/>
<path d="M122.811 112.036H118.262V83.5197H122.811V112.036Z" fill="#FEFEFE"/>
<path d="M155.578 37.0885C161.373 21.2381 179.05 17.4562 188.749 26.904C186.824 26.3405 184.533 25.4273 182.153 25.0267C176.905 24.1373 172.22 25.76 168.265 29.1582C166.418 30.747 165.05 32.8925 163.424 34.7393C163.125 35.0788 162.592 35.4862 162.219 35.4421C160.012 35.1806 158.046 35.7815 156.166 36.8509C156.03 36.9324 155.877 36.9697 155.578 37.0885Z" fill="#FEFEFE"/>
<path d="M160.942 37.3431C162.627 37.3625 164.237 38.0404 165.429 39.2319C166.62 40.4234 167.298 42.0337 167.318 43.7186C167.276 45.4242 166.572 47.0466 165.355 48.2418C164.137 49.437 162.502 50.1112 160.796 50.1213C157.262 50.0839 154.282 47.0659 154.366 43.6337C154.383 42.7883 154.567 41.9545 154.907 41.1803C155.247 40.406 155.736 39.7065 156.347 39.122C156.958 38.5375 157.679 38.0794 158.467 37.7741C159.256 37.4689 160.097 37.3224 160.942 37.3431Z" fill="#FEFEFE"/>
<path d="M85.4818 61.297V58.8052C85.4818 57.2402 85.4818 57.2368 87.1792 57.4473V77.3071C85.6176 77.6669 85.509 77.5888 85.4818 76.1257C85.4818 75.355 85.4818 74.581 85.4547 73.8104C85.4043 73.6385 85.336 73.4724 85.251 73.3147C82.7354 77.049 79.1844 78.3221 74.9918 77.6296C73.7033 77.4163 72.4721 76.9411 71.3744 76.2334C70.2767 75.5258 69.3357 74.6006 68.6095 73.515C67.0672 71.2686 66.4413 68.518 66.8597 65.8254C67.278 63.1328 68.7091 60.7018 70.8603 59.0293C74.5912 56.1742 81.5642 55.9672 85.4818 61.297ZM85.6889 67.4077C85.6889 62.4852 82.0157 58.7102 77.2494 58.7136C72.2488 58.7136 68.4398 62.3834 68.5178 67.3704C68.6027 72.6426 72.1232 76.0849 77.2833 76.1121C82.07 76.1223 85.6957 72.3268 85.6889 67.3941V67.4077Z" fill="#FEFEFE"/>
<path d="M134.67 61.3242C134.67 60.411 134.67 59.4944 134.67 58.5812C134.687 57.247 134.771 57.1927 136.275 57.5084V77.2867C134.765 77.6262 134.683 77.5719 134.67 76.1189C134.691 75.2196 134.636 74.32 134.503 73.4302C131.927 76.825 128.617 78.2135 124.526 77.6873C122.155 77.4098 119.979 76.241 118.439 74.4181C114.739 70.0965 115.136 63.1914 119.118 59.6404C122.903 56.2557 130.372 55.6141 134.67 61.3242ZM134.768 67.5028C134.843 62.8247 131.733 58.846 126.332 58.7238C121.318 58.6118 117.536 62.3664 117.617 67.3704C117.699 72.6392 121.216 76.0306 126.271 76.0985C131.098 76.163 134.751 72.4287 134.785 67.5028H134.768Z" fill="#FEFEFE"/>
<path d="M9.57008 50.4031V48.8992H22.5146C22.5349 49.3846 22.5723 49.8192 22.5723 50.2571C22.5723 55.6888 22.5519 61.1443 22.5723 66.5896C22.596 71.2847 20.7934 74.9884 16.3937 76.8692C11.7564 78.8484 7.22765 78.4036 3.32359 74.9375C1.00153 72.8667 -0.0101318 70.1372 -0.0101318 66.9291H1.68728C1.92153 69.0135 2.42736 71.0029 3.78189 72.6528C6.3416 75.7896 10.6768 76.9371 14.8457 75.5588C18.3389 74.4011 20.6542 71.098 20.6983 66.9936C20.7527 61.8776 20.6983 56.7548 20.7289 51.6388C20.7289 50.6611 20.3894 50.3725 19.4456 50.3895C16.6381 50.4302 13.834 50.3895 11.0265 50.3895L9.57008 50.4031Z" fill="#FEFEFE"/>
<path d="M170.044 21.2924C175.632 18.9771 181.342 18.2031 187.222 19.9141C193.407 21.7133 198.085 25.6853 202.121 30.3057L195.474 33.0521C189.839 23.5398 181.797 18.4747 170.044 21.2924Z" fill="#FEFEFE"/>
<path d="M111.378 77.4192H109.68C109.66 76.9575 109.626 76.5263 109.623 76.0952C109.623 72.5611 109.667 69.0271 109.592 65.4931C109.527 62.1526 107.762 59.7966 104.89 58.9818C101.434 58.0007 98.0258 59.0939 96.2163 61.7656C95.1979 63.2661 94.8584 64.9669 94.8584 66.739C94.8346 69.8249 94.8584 72.9142 94.8584 76.0001V77.28C93.1915 77.65 93.0829 77.5753 93.0829 76.102C93.0829 70.29 93.0829 64.4792 93.0829 58.6695C93.0829 57.2505 93.127 57.2267 94.8278 57.4542V60.815C95.1067 60.5826 95.3687 60.3308 95.612 60.0614C98.8779 55.5361 106.767 56.1743 109.704 60.2142C110.774 61.7114 111.353 63.5036 111.361 65.3437C111.439 69.3157 111.378 73.2944 111.378 77.4192Z" fill="#FEFEFE"/>
<path d="M44.6149 74.1193C43.3758 75.9016 41.7633 77.1509 39.6279 77.5549C34.7326 78.4783 29.8237 76.5365 28.6762 71.2643C28.4679 70.2306 28.3644 69.1785 28.3673 68.1241C28.3265 64.9567 28.3469 61.7893 28.3673 58.6185C28.3673 58.0007 28.1738 57.2606 29.2397 57.2606C30.3057 57.2606 30.153 57.9396 30.153 58.5744C30.153 61.7825 30.0817 64.994 30.1869 68.2021C30.2076 69.6155 30.4646 71.0154 30.9473 72.3438C31.9284 74.8492 34.6817 76.2581 37.737 76.1121C40.918 75.9559 43.4675 74.1703 44.4112 71.3016C44.7168 70.3369 44.8803 69.3328 44.8967 68.321C44.9544 65.0314 44.9238 61.7418 44.9137 58.4522C44.9137 57.797 44.8865 57.2572 45.8201 57.2572C46.7537 57.2572 46.7265 57.8004 46.7231 58.4522C46.7231 64.4226 46.7231 70.3941 46.7231 76.3667C46.7231 76.6824 46.6892 76.9982 46.6654 77.3852H44.9476V74.2483L44.6149 74.1193Z" fill="#FEFEFE"/>
<path d="M53.988 48.7905V77.392H52.3279V48.8754L53.988 48.7905Z" fill="#FEFEFE"/>
<path d="M158.549 87.7292L155.833 86.283C156.896 83.0783 159.18 82.0293 162.12 83.3092C162.46 83.4552 162.782 83.6147 163.122 83.7505C164.602 84.3548 164.924 84.2767 166.245 83.0071L169.073 84.3344C168.516 87.3117 165.827 88.7103 163.213 87.4441C162.996 87.3388 162.786 87.2132 162.568 87.1046C160.586 86.0692 160.185 86.1269 158.549 87.7292Z" fill="#FEFEFE"/>
<path d="M60.0988 77.3886V57.2267H61.7962V77.3886H60.0988Z" fill="#FEFEFE"/>
<path d="M60.9304 51.8934C60.0002 51.8425 59.5114 51.3842 59.5351 50.437C59.5589 49.4899 60.0579 49.0316 60.9813 49.0486C61.9047 49.0655 62.3766 49.5612 62.3732 50.4948C62.3698 51.4283 61.83 51.8663 60.9304 51.8934Z" fill="#FEFEFE"/>
<path d="M106.784 118.323V125.178H106.105V119.695L103.413 124.309H103.074L100.382 119.726V125.178H99.6858V118.323H100.283L103.261 123.416L106.207 118.323H106.784Z" fill="#FEFEFE"/>
<path d="M114.783 123.348H110.964L110.142 125.178H109.388L112.518 118.323H113.235L116.368 125.178H115.604L114.783 123.348ZM114.518 122.761L112.871 119.077L111.228 122.761H114.518Z" fill="#FEFEFE"/>
<path d="M118.313 124.346L118.598 123.789C119.224 124.335 120.029 124.632 120.859 124.621C122.143 124.621 122.699 124.081 122.699 123.406C122.699 121.525 118.48 122.682 118.48 120.147C118.48 119.128 119.264 118.266 121.009 118.266C121.76 118.257 122.498 118.468 123.13 118.873L122.886 119.451C122.326 119.089 121.675 118.892 121.009 118.884C119.753 118.884 119.196 119.44 119.196 120.126C119.196 122.007 123.416 120.87 123.416 123.368C123.416 124.387 122.611 125.235 120.859 125.235C119.848 125.235 118.829 124.876 118.313 124.346Z" fill="#FEFEFE"/>
<path d="M127.693 118.962H125.279V118.334H130.82V118.962H128.409V125.188H127.686L127.693 118.962Z" fill="#FEFEFE"/>
<path d="M138.295 124.553V125.178H133.447V118.323H138.149V118.962H134.174V121.399H137.718V122.017H134.174V124.563L138.295 124.553Z" fill="#FEFEFE"/>
<path d="M146.148 125.178L144.579 122.974C144.398 122.995 144.215 123.005 144.033 123.005H142.193V125.178H141.466V118.323H144.033C145.774 118.323 146.833 119.206 146.833 120.676C146.856 121.16 146.713 121.637 146.428 122.028C146.143 122.42 145.732 122.702 145.265 122.828L146.939 125.178H146.148ZM146.107 120.676C146.107 119.58 145.384 118.952 144.012 118.952H142.193V122.387H144.012C145.384 122.387 146.107 121.752 146.107 120.676Z" fill="#FEFEFE"/>
<path d="M153.457 121.752C153.457 119.746 154.984 118.266 157.048 118.266C157.513 118.247 157.975 118.326 158.407 118.498C158.839 118.67 159.229 118.931 159.554 119.264L159.095 119.725C158.831 119.455 158.514 119.244 158.163 119.103C157.812 118.963 157.436 118.897 157.058 118.911C156.677 118.898 156.297 118.961 155.941 119.098C155.585 119.235 155.26 119.442 154.986 119.707C154.712 119.972 154.494 120.289 154.345 120.64C154.196 120.992 154.119 121.369 154.119 121.751C154.119 122.132 154.196 122.509 154.345 122.861C154.494 123.212 154.712 123.529 154.986 123.794C155.26 124.059 155.585 124.266 155.941 124.403C156.297 124.54 156.677 124.603 157.058 124.59C157.437 124.604 157.814 124.538 158.165 124.397C158.515 124.255 158.833 124.041 159.095 123.769L159.554 124.227C159.23 124.565 158.838 124.83 158.405 125.005C157.971 125.181 157.505 125.263 157.038 125.245C154.967 125.235 153.457 123.759 153.457 121.752Z" fill="#FEFEFE"/>
<path d="M161.798 121.752C161.798 119.753 163.325 118.266 165.403 118.266C167.481 118.266 168.995 119.746 168.995 121.752C168.995 123.759 167.457 125.235 165.403 125.235C163.349 125.235 161.798 123.748 161.798 121.752ZM168.272 121.752C168.28 121.181 168.117 120.62 167.806 120.141C167.494 119.662 167.046 119.287 166.521 119.063C165.995 118.839 165.414 118.777 164.853 118.884C164.291 118.991 163.775 119.263 163.368 119.665C162.962 120.067 162.685 120.581 162.571 121.141C162.458 121.701 162.514 122.282 162.732 122.811C162.95 123.339 163.321 123.79 163.797 124.107C164.272 124.424 164.831 124.592 165.403 124.59C165.78 124.603 166.157 124.538 166.508 124.401C166.86 124.263 167.18 124.055 167.448 123.789C167.717 123.523 167.928 123.206 168.07 122.855C168.211 122.505 168.28 122.13 168.272 121.752Z" fill="#FEFEFE"/>
<path d="M176.287 123.348H172.468L171.646 125.178H170.892L174.026 118.323H174.742L177.872 125.178H177.108L176.287 123.348ZM176.022 122.761L174.379 119.077L172.732 122.761H176.022Z" fill="#FEFEFE"/>
<path d="M179.773 121.752C179.773 119.746 181.298 118.266 183.365 118.266C183.829 118.247 184.292 118.326 184.724 118.498C185.156 118.67 185.546 118.931 185.87 119.264L185.412 119.725C185.148 119.455 184.83 119.244 184.48 119.103C184.129 118.963 183.753 118.897 183.375 118.911C182.994 118.898 182.614 118.961 182.258 119.098C181.902 119.235 181.577 119.442 181.303 119.707C181.028 119.972 180.81 120.289 180.661 120.64C180.512 120.992 180.436 121.369 180.436 121.751C180.436 122.132 180.512 122.509 180.661 122.861C180.81 123.212 181.028 123.529 181.303 123.794C181.577 124.059 181.902 124.266 182.258 124.403C182.614 124.54 182.994 124.603 183.375 124.59C183.753 124.604 184.13 124.538 184.481 124.396C184.832 124.255 185.149 124.041 185.412 123.769L185.87 124.227C185.547 124.565 185.155 124.83 184.722 125.005C184.288 125.181 183.822 125.263 183.355 125.245C181.294 125.235 179.773 123.759 179.773 121.752Z" fill="#FEFEFE"/>
<path d="M194.612 118.323V125.178H193.899V122.017H189.612V125.178H188.885V118.323H189.612V121.379H193.899V118.323H194.612Z" fill="#FEFEFE"/>
</g>
<defs>
<clipPath id="clip0_21_2">
<rect width="214.92" height="125.239" fill="white"/>
</clipPath>
</defs>
</svg>
